<?xml version="1.0" encoding="UTF-8" standalone="no"?>
<!-- Created with Inkscape (http://www.inkscape.org/) -->

<svg
   xmlns:dc="http://purl.org/dc/elements/1.1/"
   xmlns:cc="http://creativecommons.org/ns#"
   xmlns:rdf="http://www.w3.org/1999/02/22-rdf-syntax-ns#"
   xmlns:svg="http://www.w3.org/2000/svg"
   xmlns="http://www.w3.org/2000/svg"
   xmlns:sodipodi="http://sodipodi.sourceforge.net/DTD/sodipodi-0.dtd"
   xmlns:inkscape="http://www.inkscape.org/namespaces/inkscape"
   version="1.1"
   id="svg99444"
   xml:space="preserve"
   width="800"
   height="800"
   viewBox="0 0 800 800"
   sodipodi:docname="viking-ship-publicdomainvectors.org.svg"
   inkscape:version="0.92.4 (5da689c313, 2019-01-14)"><metadata
     id="metadata99450"><rdf:RDF><cc:Work
         rdf:about=""><dc:format>image/svg+xml</dc:format><dc:type
           rdf:resource="http://purl.org/dc/dcmitype/StillImage" /><dc:title></dc:title></cc:Work></rdf:RDF></metadata><defs
     id="defs99448"><clipPath
       clipPathUnits="userSpaceOnUse"
       id="clipPath99460"><path
         d="M 0,600 H 600 V 0 H 0 Z"
         id="path99458"
         inkscape:connector-curvature="0" /></clipPath></defs><sodipodi:namedview
     pagecolor="#ffffff"
     bordercolor="#666666"
     borderopacity="1"
     objecttolerance="10"
     gridtolerance="10"
     guidetolerance="10"
     inkscape:pageopacity="0"
     inkscape:pageshadow="2"
     inkscape:window-width="797"
     inkscape:window-height="480"
     id="namedview99446"
     showgrid="false"
     inkscape:zoom="0.295"
     inkscape:cx="400"
     inkscape:cy="400"
     inkscape:window-x="0"
     inkscape:window-y="0"
     inkscape:window-maximized="0"
     inkscape:current-layer="g99452" /><g
     id="g99452"
     inkscape:groupmode="layer"
     inkscape:label="viking-ship-publicdomainvectors.org"
     transform="matrix(1.3333333,0,0,-1.3333333,0,800)"><g
       id="g99454"><g
         id="g99456"
         clip-path="url(#clipPath99460)"><path
           d="M 42.209,98.541 H 549.64 V 258.019 H 42.209 Z"
           style="fill:#def2f7;fill-opacity:1;fill-rule:evenodd;stroke:none"
           id="path99462"
           inkscape:connector-curvature="0" /><path
           d="m 320.088,211.266 87.904,1.647 c 1.548,0.029 5.292,-2.012 6.824,-1.805 l 11.144,1.496 -0.277,3.135 -10.919,0.743 c -1.486,0.101 -5.324,-1.416 -6.811,-1.432 l -87.908,-0.892 c -1.575,-0.014 -1.529,-2.922 0.043,-2.892"
           style="fill:#69421a;fill-opacity:1;fill-rule:evenodd;stroke:none"
           id="path99464"
           inkscape:connector-curvature="0" /><path
           d="m 309.809,215.462 c 26.56,1.023 53.122,2.047 79.683,3.069 1.402,0.054 4.833,-1.73 6.22,-1.514 3.359,0.517 6.719,1.036 10.079,1.553 -0.103,0.948 -0.205,1.893 -0.309,2.838 -3.304,0.161 -6.61,0.321 -9.915,0.48 -1.348,0.064 -4.8,-1.381 -6.15,-1.421 -26.567,-0.793 -53.133,-1.59 -79.698,-2.383 -1.428,-0.044 -1.335,-2.677 0.09,-2.622"
           style="fill:#69421a;fill-opacity:1;fill-rule:evenodd;stroke:none"
           id="path99466"
           inkscape:connector-curvature="0" /><path
           d="m 295.729,218.278 71.462,4.49 c 1.257,0.08 4.376,-1.447 5.617,-1.224 l 9.012,1.616 -0.338,2.54 -8.91,0.214 c -1.213,0.027 -4.28,-1.344 -5.491,-1.409 l -71.488,-3.875 c -1.282,-0.068 -1.141,-2.431 0.136,-2.352"
           style="fill:#69421a;fill-opacity:1;fill-rule:evenodd;stroke:none"
           id="path99468"
           inkscape:connector-curvature="0" /><path
           d="m 193.864,250.266 9.655,-30.958 -5.793,38.255 z m 194.138,38.511 -64.324,-52.054 67.506,62.069 z"
           style="fill:#e3bcae;fill-opacity:1;fill-rule:evenodd;stroke:none"
           id="path99470"
           inkscape:connector-curvature="0" /><path
           d="m 223.125,313.639 c -7.044,2.618 -6.522,-18.489 0.737,-16.537 -1.581,-14.424 -1.929,-28.863 -2.604,-43.269 -0.34,-7.227 -1.89,-14.347 -2.834,-21.52 1.927,3.548 3.851,7.098 5.777,10.648 0.983,12.232 1.963,24.465 2.945,36.696 0.076,0.115 0.151,0.228 0.226,0.341 0.755,10.647 1.51,21.295 2.266,31.941 z"
           style="fill:#c28950;fill-opacity:1;fill-rule:evenodd;stroke:none"
           id="path99472"
           inkscape:connector-curvature="0" /><path
           d="m 279.6,230.239 -17.888,262.53 -5.796,33.242 -1.698,-33.526 16.837,-264.396 z"
           style="fill:#69421a;fill-opacity:1;fill-rule:evenodd;stroke:none"
           id="path99474"
           inkscape:connector-curvature="0" /><path
           d="m 136.012,443.793 249.412,24.24 0.601,-6.372 -249.412,-24.238 z"
           style="fill:#69421a;fill-opacity:1;fill-rule:evenodd;stroke:none"
           id="path99476"
           inkscape:connector-curvature="0" /><path
           d="m 263.687,232.352 c -19.957,4.839 -31.342,13.638 -32.942,25.605 -2.034,15.205 0.786,33.292 2.347,49.961 0.312,3.33 -1.552,5.31 -3.626,5.607 l -6.341,0.114 c 2.687,-1.032 4.852,-2.863 4.475,-5.833 -2.124,-16.613 -3.228,-33.141 -3.579,-50.085 -0.264,-12.742 -6.896,-23.444 -15.724,-32.124 18.742,-2.423 37.483,-4.848 56.225,-7.271 -0.278,4.675 -0.557,9.35 -0.835,14.026"
           style="fill:#69421a;fill-opacity:1;fill-rule:evenodd;stroke:none"
           id="path99478"
           inkscape:connector-curvature="0" /><path
           d="m 342.774,179.229 c -56.61,-18.436 -90.566,12.057 -135.849,18.086 -3.247,11.1 -10.12,10.874 -9.742,33.3 84.336,-6.986 126.769,15.462 138.006,59.823 2.477,-3.554 4.954,-7.11 7.428,-10.666 2.568,-13.591 5.135,-27.183 7.701,-40.775 -1.252,-14.831 -2.504,-29.663 -3.755,-44.495 -1.263,-5.092 -2.526,-10.183 -3.789,-15.273"
           style="fill:#996633;fill-opacity:1;fill-rule:evenodd;stroke:none"
           id="path99480"
           inkscape:connector-curvature="0" /><path
           d="m 142.057,444.381 c 2.364,0.23 4.728,0.46 7.093,0.689 20.704,-33.608 37.585,-22.4 22.936,2.23 2.678,0.261 5.356,0.52 8.034,0.781 15.348,-32.665 36.453,-22.367 24.239,2.355 2.394,0.233 4.787,0.465 7.181,0.698 7.1,-28.766 32.574,-22.402 19.923,1.936 2.041,0.198 4.082,0.397 6.124,0.595 8.704,-29.322 31.797,-22.618 18.986,1.846 2.543,0.247 5.085,0.494 7.628,0.741 5.862,-30.565 27.184,-20.083 18.863,1.833 3.186,0.31 6.372,0.619 9.557,0.929 5.884,-25.448 30.44,-19.759 22.391,2.176 2.648,0.257 5.294,0.514 7.941,0.771 4.648,-22.843 33.42,-16.577 22.096,2.148 2.603,0.253 5.206,0.506 7.81,0.759 8.068,-20.809 34.532,-11.942 23.601,2.294 2.559,0.248 5.116,0.497 7.673,0.745 52.427,-21.373 77.114,-142.188 3.869,-179.13 -21.193,30.836 -109.958,25.354 -194.138,-38.511 1.694,85.812 -26.87,169.764 -51.807,194.115"
           style="fill:#edd4cc;fill-opacity:1;fill-rule:evenodd;stroke:none"
           id="path99482"
           inkscape:connector-curvature="0" /><path
           d="m 262.995,239.841 c 5.701,0.51 10.954,-6.121 11.734,-14.812 0.78,-8.691 -3.209,-16.152 -8.912,-16.664 -5.7,-0.511 -10.955,6.12 -11.733,14.813 -0.779,8.691 3.212,16.151 8.911,16.663"
           style="fill:#ff4000;fill-opacity:1;fill-rule:evenodd;stroke:none"
           id="path99484"
           inkscape:connector-curvature="0" /><path
           d="m 261.965,236.107 c 4.392,0.394 8.442,-4.715 9.041,-11.413 0.601,-6.696 -2.474,-12.444 -6.865,-12.837 -4.394,-0.395 -8.441,4.713 -9.042,11.413 -0.599,6.695 2.474,12.444 6.866,12.837"
           style="fill:#ffcc00;fill-opacity:1;fill-rule:evenodd;stroke:none"
           id="path99486"
           inkscape:connector-curvature="0" /><path
           d="m 260.878,227.947 c 1.496,0.135 2.875,-1.604 3.078,-3.884 0.204,-2.28 -0.842,-4.236 -2.337,-4.372 -1.496,-0.132 -2.875,1.607 -3.078,3.885 -0.204,2.28 0.842,4.238 2.337,4.371"
           style="fill:#ff4000;fill-opacity:1;fill-rule:evenodd;stroke:none"
           id="path99488"
           inkscape:connector-curvature="0" /><path
           d="m 235.729,237.949 c 4.751,0.591 9.353,-5.388 10.279,-13.355 0.926,-7.967 -2.174,-14.905 -6.923,-15.494 -4.752,-0.59 -9.354,5.388 -10.279,13.355 -0.927,7.967 2.173,14.903 6.923,15.494"
           style="fill:#ff4000;fill-opacity:1;fill-rule:evenodd;stroke:none"
           id="path99490"
           inkscape:connector-curvature="0" /><path
           d="m 235.067,234.493 c 3.66,0.454 7.205,-4.153 7.919,-10.292 0.713,-6.138 -1.674,-11.482 -5.335,-11.936 -3.66,-0.456 -7.206,4.149 -7.92,10.288 -0.713,6.139 1.676,11.484 5.336,11.94"
           style="fill:#ffcc00;fill-opacity:1;fill-rule:evenodd;stroke:none"
           id="path99492"
           inkscape:connector-curvature="0" /><path
           d="m 234.521,226.965 c 1.246,0.156 2.454,-1.412 2.697,-3.502 0.242,-2.09 -0.571,-3.91 -1.818,-4.064 -1.244,-0.156 -2.452,1.414 -2.695,3.501 -0.242,2.092 0.57,3.912 1.816,4.065"
           style="fill:#ff4000;fill-opacity:1;fill-rule:evenodd;stroke:none"
           id="path99494"
           inkscape:connector-curvature="0" /><path
           d="m 216.824,236.237 c 3.799,0.67 7.749,-4.657 8.822,-11.898 1.074,-7.241 -1.135,-13.655 -4.934,-14.325 -3.8,-0.671 -7.749,4.656 -8.822,11.897 -1.075,7.241 1.135,13.655 4.934,14.326"
           style="fill:#ff4000;fill-opacity:1;fill-rule:evenodd;stroke:none"
           id="path99496"
           inkscape:connector-curvature="0" /><path
           d="m 216.434,233.063 c 2.926,0.518 5.969,-3.587 6.796,-9.167 0.829,-5.579 -0.876,-10.521 -3.801,-11.038 -2.928,-0.517 -5.972,3.589 -6.799,9.168 -0.826,5.579 0.876,10.522 3.804,11.037"
           style="fill:#ffcc00;fill-opacity:1;fill-rule:evenodd;stroke:none"
           id="path99498"
           inkscape:connector-curvature="0" /><path
           d="m 216.305,226.181 c 0.997,0.176 2.032,-1.221 2.314,-3.121 0.281,-1.9 -0.298,-3.581 -1.295,-3.758 -0.996,-0.175 -2.032,1.221 -2.314,3.121 -0.281,1.899 0.298,3.582 1.295,3.758"
           style="fill:#ff4000;fill-opacity:1;fill-rule:evenodd;stroke:none"
           id="path99500"
           inkscape:connector-curvature="0" /><path
           d="m 202.308,234.618 c 2.847,0.751 6.146,-3.925 7.366,-10.441 1.222,-6.517 -0.097,-12.408 -2.946,-13.157 -2.848,-0.749 -6.148,3.925 -7.369,10.441 -1.219,6.516 0.101,12.406 2.949,13.157"
           style="fill:#ff4000;fill-opacity:1;fill-rule:evenodd;stroke:none"
           id="path99502"
           inkscape:connector-curvature="0" /><path
           d="m 202.138,231.731 c 2.194,0.579 4.737,-3.023 5.676,-8.044 0.942,-5.022 -0.075,-9.558 -2.269,-10.136 -2.194,-0.578 -4.737,3.022 -5.678,8.043 -0.939,5.021 0.076,9.559 2.271,10.137"
           style="fill:#ffcc00;fill-opacity:1;fill-rule:evenodd;stroke:none"
           id="path99504"
           inkscape:connector-curvature="0" /><path
           d="m 202.359,225.499 c 0.747,0.196 1.614,-1.03 1.934,-2.74 0.319,-1.708 -0.027,-3.253 -0.774,-3.451 -0.747,-0.196 -1.613,1.03 -1.933,2.739 -0.318,1.709 0.027,3.255 0.773,3.452"
           style="fill:#ff4000;fill-opacity:1;fill-rule:evenodd;stroke:none"
           id="path99506"
           inkscape:connector-curvature="0" /><path
           d="m 327.945,394.344 11.887,-0.464 -9.288,-6.399 z"
           style="fill:#7a4f24;fill-opacity:1;fill-rule:evenodd;stroke:none"
           id="path99508"
           inkscape:connector-curvature="0" /><path
           d="m 343.346,400.571 c 3.331,-0.532 6.661,-1.063 9.993,-1.595 2.307,-6.262 1.456,-12.005 -0.844,-17.509 l -4.937,-4.842 -4.784,5.469 c 0.191,6.16 0.381,12.319 0.572,18.477"
           style="fill:#7a4f24;fill-opacity:1;fill-rule:evenodd;stroke:none"
           id="path99510"
           inkscape:connector-curvature="0" /><path
           d="m 342.774,382.094 c 1.759,5.677 2.748,11.589 0.572,18.477 -3.888,-2.831 -7.778,-5.663 -11.666,-8.494 -12.305,13.854 -16.266,-39.546 -12.005,-57.088 -0.848,18.173 7.744,34.658 10.558,27.665 0.441,-3.298 0.276,-10.394 1.447,-9.088 1.106,1.233 2.214,2.466 3.32,3.699 2.403,1.183 4.809,2.366 7.213,3.55 h 0.454 c 1.925,2.907 3.851,5.815 5.775,8.72 -0.338,2.72 -0.678,5.439 -1.018,8.156 -1.549,1.468 -3.099,2.935 -4.65,4.403"
           style="fill:#deac7a;fill-opacity:1;fill-rule:evenodd;stroke:none"
           id="path99512"
           inkscape:connector-curvature="0" /><path
           d="m 319.675,334.989 c 11.805,-50.313 35.933,-57.55 23.099,-155.76 3.213,5.368 6.423,10.736 9.636,16.104 1.963,17.822 3.927,35.641 5.89,53.463 -3.322,16.763 -6.646,33.525 -9.968,50.289 -5.436,15.705 -10.874,31.412 -16.311,47.119 l -0.119,7.61 -0.222,-0.248 c -1.171,-1.306 -1.006,5.79 -1.447,9.088 -2.814,6.993 -12.188,-5.864 -10.558,-27.665"
           style="fill:#c28950;fill-opacity:1;fill-rule:evenodd;stroke:none"
           id="path99514"
           inkscape:connector-curvature="0" /><path
           d="m 342.774,179.229 c 32.519,120.494 -24.217,129.985 -12.541,183.425 1.235,-8.039 7.893,-3.438 8.153,3.136 4.644,-7.671 8.785,0.389 4.388,16.304 3.241,-0.208 6.481,-0.418 9.721,-0.627 1.3,-6.588 4.038,-18.336 -2.891,-18.786 l -5.261,-0.341 c -0.321,-3.299 -1.02,-4.963 -3.619,-5.226 L 335,357.265 c -3.506,-49.729 48.234,-65.733 16.868,-178.663 -3.032,0.208 -6.062,0.417 -9.094,0.627"
           style="fill:#996633;fill-opacity:1;fill-rule:evenodd;stroke:none"
           id="path99516"
           inkscape:connector-curvature="0" /><path
           d="m 230.894,210.199 -85.997,-18.298 c -1.512,-0.321 -4.697,-3.157 -6.237,-3.303 l -11.192,-1.067 -0.44,3.116 10.467,3.197 c 1.424,0.435 5.506,-0.174 6.96,0.147 l 85.825,19.034 c 1.538,0.342 2.152,-2.498 0.614,-2.826"
           style="fill:#69421a;fill-opacity:1;fill-rule:evenodd;stroke:none"
           id="path99518"
           inkscape:connector-curvature="0" /><path
           d="m 213.567,212.141 c -26.102,-5.018 -52.205,-10.036 -78.309,-15.054 -1.377,-0.264 -4.316,-2.78 -5.715,-2.883 -3.389,-0.257 -6.779,-0.514 -10.169,-0.767 -0.113,0.944 -0.228,1.887 -0.342,2.834 3.183,0.903 6.365,1.807 9.548,2.711 1.301,0.368 4.991,-0.258 6.314,0.009 26.055,5.241 52.112,10.482 78.168,15.722 1.4,0.283 1.907,-2.304 0.505,-2.572"
           style="fill:#69421a;fill-opacity:1;fill-rule:evenodd;stroke:none"
           id="path99520"
           inkscape:connector-curvature="0" /><path
           d="M 200.327,212.855 129.704,201.05 c -1.242,-0.208 -3.934,-2.402 -5.193,-2.466 l -9.146,-0.466 -0.244,2.551 8.631,2.226 c 1.174,0.302 4.473,-0.339 5.666,-0.128 l 70.511,12.41 c 1.262,0.222 1.66,-2.111 0.398,-2.322"
           style="fill:#69421a;fill-opacity:1;fill-rule:evenodd;stroke:none"
           id="path99522"
           inkscape:connector-curvature="0" /></g></g></g></svg>